<svg xmlns="http://www.w3.org/2000/svg" width="152" height="152" viewBox="0 0 152 152">
  <!-- Background -->
  <rect width="152" height="152" rx="35" fill="#0F172A" />
  
  <!-- Cyan circle -->
  <circle cx="76" cy="76" r="60" fill="#7CFBFF" />
  
  <!-- Walrus -->
  <g transform="translate(76, 76) scale(3)">
    <!-- Walrus head -->
    <path d="M12 4C6 4 3 8 3 14C3 19 7 20 12 20C17 20 21 19 21 14C21 8 18 4 12 4Z" fill="#7CFBFF" stroke="#000" stroke-width="1" />

    <!-- Sunglasses -->
    <rect x="5" y="9" width="14" height="3" rx="0.5" fill="#000" />
    <rect x="5" y="9" width="6" height="3" rx="0.5" fill="#000" />
    <rect x="13" y="9" width="6" height="3" rx="0.5" fill="#000" />
    <line x1="12" y1="9" x2="12" y2="12" stroke="#7CFBFF" stroke-width="0.5" />

    <!-- Whiskers -->
    <line x1="5" y1="13" x2="2" y2="12" stroke="#000" stroke-width="0.5" />
    <line x1="5" y1="14" x2="2" y2="14" stroke="#000" stroke-width="0.5" />
    <line x1="5" y1="15" x2="2" y2="16" stroke="#000" stroke-width="0.5" />
    <line x1="19" y1="13" x2="22" y2="12" stroke="#000" stroke-width="0.5" />
    <line x1="19" y1="14" x2="22" y2="14" stroke="#000" stroke-width="0.5" />
    <line x1="19" y1="15" x2="22" y2="16" stroke="#000" stroke-width="0.5" />

    <!-- Tusks -->
    <path d="M9 15C9 15 8 17 8 19C8 20 9 20 9 19C9 17 10 15 10 15" fill="#fff" stroke="#000" stroke-width="0.5" />
    <path d="M15 15C15 15 16 17 16 19C16 20 15 20 15 19C15 17 14 15 14 15" fill="#fff" stroke="#000" stroke-width="0.5" />

    <!-- Nose -->
    <ellipse cx="12" cy="14.5" rx="2.5" ry="1.8" fill="#000" />

    <!-- Music notes -->
    <g transform="translate(18, 12) scale(0.6)">
      <!-- First note -->
      <path d="M0,0 C1,-1 2,0 2,1 L2,5 C2,6 1,7 0,7 C-1,7 -2,6 -2,5 C-2,4 -1,3 0,3 Z" fill="#000" />
      <line x1="2" y1="1" x2="2" y2="-3" stroke="#000" stroke-width="0.8" />
      <line x1="2" y1="-3" x2="3" y2="-4" stroke="#000" stroke-width="0.8" />

      <!-- Second note -->
      <g transform="translate(5, -3)">
        <path d="M0,0 C1,-1 2,0 2,1 L2,5 C2,6 1,7 0,7 C-1,7 -2,6 -2,5 C-2,4 -1,3 0,3 Z" fill="#000" />
        <line x1="2" y1="1" x2="2" y2="-3" stroke="#000" stroke-width="0.8" />
        <line x1="2" y1="-3" x2="3" y2="-4" stroke="#000" stroke-width="0.8" />
      </g>

      <!-- Third note -->
      <g transform="translate(10, -5)">
        <path d="M0,0 C1,-1 2,0 2,1 L2,5 C2,6 1,7 0,7 C-1,7 -2,6 -2,5 C-2,4 -1,3 0,3 Z" fill="#000" />
        <line x1="2" y1="1" x2="2" y2="-3" stroke="#000" stroke-width="0.8" />
        <line x1="2" y1="-3" x2="3" y2="-4" stroke="#000" stroke-width="0.8" />
      </g>
    </g>
  </g>
</svg> 