<svg xmlns="http://www.w3.org/2000/svg" width="96" height="96" viewBox="0 0 24 24">
    <circle cx="12" cy="12" r="12" fill="#7CFBFF"/>
    <g transform="scale(0.6) translate(8, 8)">
      <!-- Walrus head -->
      <path d="M12 4C7 4 3 8 3 13C3 18 7 20 12 20C17 20 21 18 21 13C21 8 17 4 12 4Z" fill="#7CFBFF" stroke="#000" stroke-width="1"/>
      
      <!-- Sunglasses -->
      <rect x="6" y="9" width="12" height="3" rx="1" fill="#000"/>
      <rect x="5" y="9" width="5" height="3" rx="1" fill="#000"/>
      <rect x="14" y="9" width="5" height="3" rx="1" fill="#000"/>
      
      <!-- Whiskers -->
      <line x1="5" y1="13" x2="2" y2="12" stroke="#000" stroke-width="0.5"/>
      <line x1="5" y1="14" x2="2" y2="14" stroke="#000" stroke-width="0.5"/>
      <line x1="5" y1="15" x2="2" y2="16" stroke="#000" stroke-width="0.5"/>
      <line x1="19" y1="13" x2="22" y2="12" stroke="#000" stroke-width="0.5"/>
      <line x1="19" y1="14" x2="22" y2="14" stroke="#000" stroke-width="0.5"/>
      <line x1="19" y1="15" x2="22" y2="16" stroke="#000" stroke-width="0.5"/>
      
      <!-- Tusks -->
      <path d="M9 15C9 15 8 17 8 19C8 20 9 20 9 19C9 17 10 15 10 15" fill="#fff" stroke="#000" stroke-width="0.5"/>
      <path d="M15 15C15 15 16 17 16 19C16 20 15 20 15 19C15 17 14 15 14 15" fill="#fff" stroke="#000" stroke-width="0.5"/>
      
      <!-- Nose -->
      <ellipse cx="12" cy="14" rx="2" ry="1.5" fill="#000"/>
    </g>
  </svg>